<svg
  xmlns="http://www.w3.org/2000/svg"
  viewBox="0 0 32 24"
  aria-label="Logscale"
  fill="#EC4F34FF"
>
  <path
    d="M28.8816 19.2056C28.2224 19.1409 27.0521 18.9795 25.5879 19.7111C24.1245 20.4435 23.5481 20.475 22.8298 20.3988C23.0409 20.7817 23.4689 21.3072 24.8146 21.4011C26.1594 21.495 26.803 21.5365 26.0954 23.1992C26.1111 22.6965 25.9935 21.7261 24.6572 21.8966C23.3222 22.0666 23.0101 23.2589 24.4425 23.8537C23.977 23.9462 22.9895 24.0014 22.2842 22.1723C21.7959 22.3829 21.0423 22.8049 19.6765 21.7589C20.1523 21.9303 20.7413 21.9408 20.7413 21.9408C19.5284 21.3669 18.371 20.2999 17.6286 19.2913C18.2167 19.7261 18.8661 20.1582 19.5226 20.2398C18.7467 19.3013 16.9529 17.4253 14.7584 15.4968C16.1693 16.4107 17.8724 17.8555 20.6586 17.531C23.4452 17.2056 25.3182 16.5729 28.8816 19.2056ZM17.011 18.7234C15.2633 17.9731 14.8889 17.8214 12.6425 17.2557C10.3957 16.6896 8.18552 15.5119 6.70834 13.6737C7.75037 14.4303 9.87736 15.9531 12.0616 15.7881C11.7293 15.3059 11.1171 14.9303 10.3854 14.5515C11.2132 14.748 13.7119 15.3815 17.011 18.7234ZM13.3814 12.0661C11.5325 9.47449 9.08265 8.68233 7.18419 7.39837C1.40652 3.81769 0.259389 1.06062 0 0C3.62921 3.93392 6.38545 5.47722 8.26289 6.70557C12.1179 9.14358 12.9306 10.7844 13.3814 12.0661ZM13.8134 14.2466C12.0325 12.1071 9.55849 11.3574 8.09473 10.5579C2.8099 7.7867 1.58183 5.56792 1.34167 4.55789C3.98744 7.35552 6.92972 8.82681 8.65153 9.78351C12.3858 11.7703 13.3389 13.1618 13.8134 14.2466ZM17.333 8.31222C26.4514 10.8336 25.7623 12.2224 25.1004 13.8186C24.6102 14.9754 25.176 15.1048 25.4045 15.1919C26.5682 15.6322 29.6415 16.1992 29.4501 17.4882C29.8092 17.8432 31.1374 19.2612 30.5815 20.2457C30.1044 19.4731 27.9116 17.4686 25.2582 17.0556C22.6049 16.6436 20.1858 17.5337 18.1863 16.2183C16.4896 15.0059 16.2172 14.5479 14.5075 11.7726C13.74 10.5269 13.592 9.39336 10.9865 7.28488C8.38096 5.1764 5.94225 4.05242 4.91945 0.911578C7.15914 3.64039 10.054 6.24704 17.333 8.31222ZM27.8387 16.7803C27.8387 16.7803 28.5771 17.1413 29.1643 17.7776C29.1495 17.2776 29.2193 16.9873 27.8387 16.7803Z"/>
</svg>